<svg xmlns="http://www.w3.org/2000/svg" xmlns:xlink="http://www.w3.org/1999/xlink" width="794" zoomAndPan="magnify" viewBox="0 0 595.5 842.249979" height="1123" preserveAspectRatio="xMidYMid meet" version="1.2"><defs/><g id="7483c2ba4b"><g style="fill:#b7b0b0;fill-opacity:1;"><g transform="translate(129.312968, 570.91239)"><path style="stroke:none" d="M 114.558594 -6.183594 C 93.441406 -1.746094 73.753906 -2.273438 55.496094 -7.765625 C 36.761719 -13.398438 20.789062 -24.320312 7.578125 -40.53125 C -5.242188 -56.261719 -14.296875 -76.710938 -19.585938 -101.882812 C -24.878906 -127.054688 -24.824219 -149.417969 -19.421875 -168.980469 C -13.855469 -189.136719 -3.628906 -205.5625 11.25 -218.265625 C 25.753906 -230.640625 43.5625 -239.050781 64.679688 -243.488281 C 86.6875 -248.113281 106.527344 -247.667969 124.195312 -242.144531 C 142.855469 -236.316406 157.695312 -224.6875 168.71875 -207.261719 L 175.121094 -197.136719 L 137.664062 -161.824219 L 120.636719 -158.953125 L 115.390625 -166.644531 C 110.597656 -173.683594 105.472656 -178.179688 100.019531 -180.132812 C 94.183594 -182.226562 86.820312 -182.335938 77.925781 -180.46875 C 71.429688 -179.101562 65.996094 -176.898438 61.625 -173.855469 C 57.53125 -171 54.253906 -167.300781 51.800781 -162.757812 C 49.285156 -158.101562 47.835938 -152.1875 47.453125 -145.011719 C 47.019531 -136.929688 47.949219 -127.445312 50.238281 -116.558594 C 52.515625 -105.722656 55.476562 -96.707031 59.117188 -89.507812 C 62.351562 -83.113281 66.058594 -78.289062 70.238281 -75.035156 C 74.316406 -71.867188 78.800781 -69.800781 83.699219 -68.835938 C 88.925781 -67.808594 94.789062 -67.980469 101.285156 -69.34375 C 111.171875 -71.421875 118.402344 -75.214844 122.976562 -80.726562 C 127.542969 -86.230469 129.925781 -94.007812 130.125 -104.066406 L 130.355469 -115.621094 L 148.621094 -119.460938 L 196.3125 -106.09375 L 195.4375 -94.242188 C 193.683594 -70.464844 185.972656 -51.113281 172.300781 -36.183594 C 158.796875 -21.4375 139.550781 -11.4375 114.558594 -6.183594 Z M 108.582031 -34.625 C 127.476562 -38.597656 141.570312 -45.660156 150.867188 -55.8125 C 160 -65.785156 165.195312 -79.304688 166.453125 -96.378906 L 180.945312 -95.308594 L 177.023438 -81.316406 L 144.203125 -90.515625 L 148.125 -104.507812 L 151.113281 -90.285156 L 147.644531 -89.558594 L 144.65625 -103.777344 L 159.183594 -103.488281 C 158.847656 -86.65625 154.234375 -72.882812 145.339844 -62.167969 C 136.453125 -51.457031 123.761719 -44.371094 107.261719 -40.902344 C 96.910156 -38.726562 87.1875 -38.53125 78.09375 -40.320312 C 68.671875 -42.171875 60.105469 -46.097656 52.394531 -52.097656 C 37.804688 -63.449219 27.605469 -82.945312 21.796875 -110.582031 C 15.96875 -138.3125 17.445312 -160.308594 26.230469 -176.570312 C 30.875 -185.167969 37.136719 -192.210938 45.015625 -197.699219 C 52.617188 -202.996094 61.597656 -206.734375 71.949219 -208.910156 C 86.203125 -211.90625 98.828125 -211.433594 109.824219 -207.492188 C 121.203125 -203.414062 131.066406 -195.253906 139.40625 -183.011719 L 127.398438 -174.828125 L 124.980469 -189.15625 L 128.484375 -189.75 L 130.902344 -175.421875 L 120.933594 -185.992188 L 146.46875 -210.066406 L 156.4375 -199.492188 L 144.15625 -191.726562 C 136.9375 -203.140625 127.394531 -210.699219 115.53125 -214.40625 C 102.679688 -218.421875 87.722656 -218.632812 70.660156 -215.046875 C 54.375 -211.625 40.863281 -205.328125 30.117188 -196.160156 C 19.753906 -187.3125 12.578125 -175.675781 8.59375 -161.242188 C 4.445312 -146.21875 4.53125 -128.425781 8.851562 -107.859375 C 13.175781 -87.296875 20.261719 -70.972656 30.105469 -58.890625 C 39.566406 -47.285156 50.816406 -39.519531 63.867188 -35.59375 C 77.394531 -31.527344 92.296875 -31.203125 108.582031 -34.625 Z M 108.582031 -34.625 "/></g></g><g style="fill:#b7b0b0;fill-opacity:1;"><g transform="translate(328.443098, 529.057546)"><path style="stroke:none" d="M 20.90625 60.421875 L -27.324219 -169.046875 L 39.582031 -183.109375 L 46.777344 -148.894531 L 32.554688 -145.902344 L 32.28125 -160.433594 L 35.3125 -160.488281 L 35.589844 -145.960938 L 21.800781 -150.542969 C 25.585938 -161.941406 31.949219 -171.292969 40.890625 -178.601562 C 49.484375 -185.628906 60.027344 -190.453125 72.523438 -193.078125 C 87.585938 -196.246094 101.648438 -195.390625 114.71875 -190.511719 C 127.957031 -185.566406 139.257812 -176.46875 148.621094 -163.210938 C 157.414062 -150.757812 163.867188 -134.753906 167.976562 -115.207031 C 172.089844 -95.644531 172.449219 -78.339844 169.0625 -63.292969 C 165.484375 -47.414062 158.421875 -34.503906 147.871094 -24.570312 C 137.496094 -14.800781 124.679688 -8.3125 109.421875 -5.105469 C 97.808594 -2.664062 87.164062 -2.546875 77.480469 -4.753906 C 67.347656 -7.0625 58.214844 -11.960938 50.082031 -19.457031 L 59.933594 -30.144531 L 65.527344 -16.734375 L 62.730469 -15.5625 L 57.132812 -28.972656 L 71.351562 -31.964844 L 90.804688 60.582031 L 23.898438 74.644531 Z M 49.347656 54.445312 L 35.128906 57.433594 L 32.140625 43.214844 L 70.605469 35.128906 L 73.59375 49.347656 L 59.375 52.339844 L 40.4375 -37.753906 L 62.929688 -47.140625 L 69.78125 -40.828125 C 74.117188 -36.832031 78.835938 -34.25 83.933594 -33.089844 C 89.480469 -31.824219 95.984375 -31.976562 103.445312 -33.546875 C 113.371094 -35.632812 121.535156 -39.695312 127.945312 -45.730469 C 134.179688 -51.597656 138.433594 -59.582031 140.710938 -69.679688 C 143.171875 -80.609375 142.78125 -93.792969 139.535156 -109.226562 C 136.25 -124.859375 131.367188 -137.261719 124.882812 -146.445312 C 118.96875 -154.820312 112.191406 -160.433594 104.554688 -163.28125 C 96.75 -166.195312 88.0625 -166.648438 78.5 -164.636719 C 70.625 -162.984375 64.222656 -160.136719 59.285156 -156.101562 C 54.695312 -152.351562 51.394531 -147.441406 49.378906 -141.378906 L 46.136719 -131.628906 L 20.808594 -131.148438 L 14.132812 -162.914062 L 28.351562 -165.902344 L 31.339844 -151.679688 L -7.125 -143.59375 L -10.113281 -157.816406 L 4.105469 -160.804688 Z M 85.890625 -63.933594 C 89.675781 -64.730469 92.730469 -65.945312 95.054688 -67.582031 C 97.007812 -68.960938 98.527344 -70.742188 99.613281 -72.921875 C 100.859375 -75.425781 101.5625 -78.757812 101.71875 -82.910156 C 101.910156 -87.957031 101.277344 -93.945312 99.820312 -100.878906 C 98.359375 -107.816406 96.527344 -113.558594 94.316406 -118.113281 C 92.492188 -121.878906 90.496094 -124.667969 88.324219 -126.488281 C 86.449219 -128.058594 84.339844 -129.085938 81.996094 -129.566406 C 79.214844 -130.136719 75.941406 -130.023438 72.167969 -129.230469 C 68.859375 -128.535156 66.128906 -127.394531 63.972656 -125.804688 C 61.957031 -124.316406 60.300781 -122.3125 59.011719 -119.789062 C 57.617188 -117.074219 56.808594 -113.636719 56.585938 -109.484375 C 56.316406 -104.546875 56.875 -98.769531 58.269531 -92.144531 C 59.648438 -85.574219 61.453125 -80.097656 63.679688 -75.710938 C 65.554688 -72.019531 67.675781 -69.207031 70.046875 -67.277344 C 72.246094 -65.488281 74.566406 -64.320312 77.011719 -63.769531 C 79.625 -63.183594 82.582031 -63.238281 85.890625 -63.933594 Z M 91.871094 -35.492188 C 84.4375 -33.929688 77.359375 -33.90625 70.636719 -35.417969 C 63.746094 -36.964844 57.4375 -40.070312 51.703125 -44.738281 C 41.113281 -53.355469 33.820312 -67.164062 29.828125 -86.167969 C 25.8125 -105.261719 26.917969 -120.886719 33.144531 -133.039062 C 36.511719 -139.617188 41.039062 -145.003906 46.722656 -149.195312 C 52.269531 -153.285156 58.757812 -156.109375 66.1875 -157.671875 C 73.894531 -159.292969 81.105469 -159.414062 87.824219 -158.039062 C 94.972656 -156.574219 101.367188 -153.480469 107.003906 -148.753906 C 117.078125 -140.300781 124.164062 -126.335938 128.257812 -106.855469 C 132.355469 -87.363281 131.480469 -71.734375 125.632812 -59.976562 C 122.371094 -53.414062 117.757812 -48.03125 111.796875 -43.828125 C 106.207031 -39.890625 99.566406 -37.109375 91.871094 -35.492188 Z M 91.871094 -35.492188 "/></g></g><g style="fill:#de0606;fill-opacity:1;"><g transform="translate(129.312968, 570.91239)"><path style="stroke:none" d="M 111.578125 -20.40625 C 92.867188 -16.46875 75.566406 -16.890625 59.671875 -21.671875 C 43.785156 -26.453125 30.175781 -35.796875 18.84375 -49.703125 C 7.507812 -63.617188 -0.5625 -82.007812 -5.375 -104.875 C -10.175781 -127.738281 -10.1875 -147.816406 -5.40625 -165.109375 C -0.632812 -182.410156 8.0625 -196.445312 20.6875 -207.21875 C 33.3125 -217.988281 48.976562 -225.34375 67.6875 -229.28125 C 87.21875 -233.382812 104.609375 -233.050781 119.859375 -228.28125 C 135.117188 -223.507812 147.3125 -213.910156 156.4375 -199.484375 L 130.90625 -175.421875 L 127.40625 -174.84375 C 120.832031 -184.46875 113.335938 -190.785156 104.921875 -193.796875 C 96.503906 -196.816406 86.515625 -197.113281 74.953125 -194.6875 C 58.097656 -191.144531 46.117188 -182.800781 39.015625 -169.65625 C 31.921875 -156.519531 30.921875 -137.828125 36.015625 -113.578125 C 41.097656 -89.421875 49.53125 -72.753906 61.3125 -63.578125 C 73.101562 -54.410156 87.425781 -51.597656 104.28125 -55.140625 C 130.65625 -60.679688 144.113281 -76.898438 144.65625 -103.796875 L 148.125 -104.515625 L 180.953125 -95.296875 C 179.441406 -74.878906 172.984375 -58.441406 161.578125 -45.984375 C 150.179688 -33.535156 133.515625 -25.007812 111.578125 -20.40625 Z M 111.578125 -20.40625 "/></g></g><g style="fill:#de0606;fill-opacity:1;"><g transform="translate(328.443098, 529.057546)"><path style="stroke:none" d="M 35.125 57.4375 L -10.109375 -157.8125 L 28.359375 -165.90625 L 32.546875 -145.921875 L 35.578125 -145.953125 C 38.492188 -154.679688 43.332031 -161.8125 50.09375 -167.34375 C 56.851562 -172.882812 65.320312 -176.722656 75.5 -178.859375 C 87.820312 -181.453125 99.203125 -180.796875 109.640625 -176.890625 C 120.078125 -172.992188 129.113281 -165.640625 136.75 -154.828125 C 144.382812 -144.015625 150.050781 -129.8125 153.75 -112.21875 C 157.425781 -94.726562 157.800781 -79.484375 154.875 -66.484375 C 151.957031 -53.492188 146.300781 -43.046875 137.90625 -35.140625 C 129.519531 -27.242188 119.03125 -21.972656 106.4375 -19.328125 C 96.894531 -17.316406 88.316406 -17.179688 80.703125 -18.921875 C 73.085938 -20.660156 66.160156 -24.398438 59.921875 -30.140625 L 57.125 -28.984375 L 73.59375 49.34375 Z M 88.875 -49.71875 C 100.351562 -52.125 108.269531 -57.695312 112.625 -66.4375 C 116.976562 -75.1875 117.453125 -87.660156 114.046875 -103.859375 C 110.640625 -120.066406 105.175781 -131.316406 97.65625 -137.609375 C 90.144531 -143.910156 80.648438 -145.859375 69.171875 -143.453125 C 58.429688 -141.191406 50.734375 -135.507812 46.078125 -126.40625 C 41.421875 -117.3125 40.75 -104.894531 44.0625 -89.15625 C 47.34375 -73.507812 52.945312 -62.457031 60.875 -56 C 68.800781 -49.550781 78.132812 -47.457031 88.875 -49.71875 Z M 88.875 -49.71875 "/></g></g></g></svg>